<?xml version="1.0" encoding="UTF-8"?>
<!DOCTYPE svg PUBLIC "-//W3C//DTD SVG 1.1//EN" "http://www.w3.org/Graphics/SVG/1.1/DTD/svg11.dtd">
<svg xmlns="http://www.w3.org/2000/svg" version="1.1" width="512px" height="512px" style="shape-rendering:geometricPrecision; text-rendering:geometricPrecision; image-rendering:optimizeQuality; fill-rule:evenodd; clip-rule:evenodd" xmlns:xlink="http://www.w3.org/1999/xlink">
<g><path style="opacity:1" fill="#fefefe" d="M 22.5,-0.5 C 177.833,-0.5 333.167,-0.5 488.5,-0.5C 500.5,2.83333 508.167,10.5 511.5,22.5C 511.5,177.833 511.5,333.167 511.5,488.5C 508.167,500.5 500.5,508.167 488.5,511.5C 333.167,511.5 177.833,511.5 22.5,511.5C 10.5,508.167 2.83333,500.5 -0.5,488.5C -0.5,333.167 -0.5,177.833 -0.5,22.5C 2.83333,10.5 10.5,2.83333 22.5,-0.5 Z"/></g>
<g><path style="opacity:1" fill="#f54612" d="M 338.5,184.5 C 343.947,186.277 349.614,187.61 355.5,188.5C 355.833,188.5 356.167,188.5 356.5,188.5C 363.254,190.992 370.254,192.992 377.5,194.5C 396.983,200.5 415.983,208 434.5,217C 437.336,219.007 440.003,221.174 442.5,223.5C 435.827,224.556 429.161,224.39 422.5,223C 393.354,214.575 363.687,209.075 333.5,206.5C 337.947,244.973 335.447,282.973 326,320.5C 321.61,336.129 313.11,348.962 300.5,359C 278.943,370.281 258.943,367.947 240.5,352C 209.58,321.644 195.913,284.811 199.5,241.5C 206.835,210.997 225.835,191.831 256.5,184C 262.785,182.73 269.118,181.897 275.5,181.5C 278.167,181.5 280.833,181.5 283.5,181.5C 283.813,177.958 283.479,174.625 282.5,171.5C 280.176,143.89 276.01,116.557 270,89.5C 269.577,88.0439 268.744,87.5439 267.5,88C 262.637,93.5626 258.137,99.3959 254,105.5C 237.041,134.377 222.374,164.377 210,195.5C 204.287,212.029 198.12,228.362 191.5,244.5C 181.047,272.051 171.714,300.051 163.5,328.5C 157.982,342.729 153.649,357.396 150.5,372.5C 144.094,394.794 138.594,417.461 134,440.5C 132.998,450.949 133.498,461.283 135.5,471.5C 131.474,471.323 128.641,469.323 127,465.5C 124.084,453.512 122.584,441.346 122.5,429C 125.917,388.666 132.417,348.833 142,309.5C 156.993,239.853 178.993,172.52 208,107.5C 214.493,94.5117 221.493,81.845 229,69.5C 237.692,56.8052 248.859,46.9719 262.5,40C 276.241,37.0246 288.075,40.5246 298,50.5C 305.084,59.3953 310.084,69.3953 313,80.5C 321.039,114.526 327.206,148.86 331.5,183.5C 333.747,184.374 336.08,184.708 338.5,184.5 Z"/></g>
<g><path style="opacity:1" fill="#fdfaf8" d="M 282.5,171.5 C 282.5,174.5 282.5,177.5 282.5,180.5C 279.941,180.198 277.607,180.532 275.5,181.5C 269.118,181.897 262.785,182.73 256.5,184C 225.835,191.831 206.835,210.997 199.5,241.5C 199.261,230.697 197.594,230.197 194.5,240C 195.148,241.44 195.481,242.94 195.5,244.5C 194.167,244.5 192.833,244.5 191.5,244.5C 198.12,228.362 204.287,212.029 210,195.5C 222.374,164.377 237.041,134.377 254,105.5C 258.137,99.3959 262.637,93.5626 267.5,88C 268.744,87.5439 269.577,88.0439 270,89.5C 276.01,116.557 280.176,143.89 282.5,171.5 Z"/></g>
<g><path style="opacity:1" fill="#f9a892" d="M 282.5,171.5 C 283.479,174.625 283.813,177.958 283.5,181.5C 280.833,181.5 278.167,181.5 275.5,181.5C 277.607,180.532 279.941,180.198 282.5,180.5C 282.5,177.5 282.5,174.5 282.5,171.5 Z"/></g>
<g><path style="opacity:1" fill="#fddbca" d="M 338.5,184.5 C 343.859,184.67 349.192,185.17 354.5,186C 355.252,186.671 355.586,187.504 355.5,188.5C 349.614,187.61 343.947,186.277 338.5,184.5 Z"/></g>
<g><path style="opacity:1" fill="#fedecd" d="M 356.5,188.5 C 364.269,188.543 371.269,190.543 377.5,194.5C 370.254,192.992 363.254,190.992 356.5,188.5 Z"/></g>
<g><path style="opacity:1" fill="#fefcfb" d="M 281.5,205.5 C 283.167,205.5 284.833,205.5 286.5,205.5C 288.435,224.455 289.769,243.455 290.5,262.5C 290.929,280.837 288.763,298.837 284,316.5C 280.063,327.583 273.563,329.417 264.5,322C 240.808,301.12 229.974,274.954 232,243.5C 237.018,226.813 247.852,215.647 264.5,210C 270.338,208.673 276.005,207.173 281.5,205.5 Z"/></g>
<g><path style="opacity:1" fill="#fde8da" d="M 163.5,328.5 C 162.9,332.667 162.234,336.833 161.5,341C 161.559,342.436 161.892,343.769 162.5,345C 161.234,345.309 160.067,345.809 159,346.5C 157.207,353.654 155.374,360.821 153.5,368C 153.041,369.942 152.041,371.442 150.5,372.5C 153.649,357.396 157.982,342.729 163.5,328.5 Z"/></g>
</svg>
